# xmcd CD database file
#
# Track frame offsets:
#	150
#	14755
#	27764
#	42590
#	56473
#	71543
#	81766
#	93904
#	106704
#	119624
#
# Disc length: 1729 seconds
#
# Revision: 0
# Processed by: cddbd v1.5.2PL0 Copyright (c) Steve Scherf et al.
# Submitted via: CDex 1.51
#
DISCID=7d06bf0a
DTITLE=John Reese - Any Friend Of Mine, After
DYEAR=2003
DGENRE=Country
TTITLE0=With These Hands
TTITLE1=Good Ole Days
TTITLE2=Snakebite
TTITLE3=Not Every Man
TTITLE4=Get The Hell Gone
TTITLE5=Redneck Club
TTITLE6=I Wanna Dance With You
TTITLE7=Those Three Words
TTITLE8=You Be the Bee
TTITLE9=Hangin' Out With Jesus
EXTD=YEAR: 2003
EXTT0=
EXTT1=
EXTT2=
EXTT3=
EXTT4=
EXTT5=
EXTT6=
EXTT7=
EXTT8=
EXTT9=
PLAYORDER=
